# xmcd
#
# Track frame offsets: 
#        150
#        14622
#        27465
#        45527
#        61657
#        70595
#        83330
#        95555
#        108532
#        120682
#        134185
#        149337
#
# Disc length: 2188 seconds
#
# Revision: 2
# Processed by: cddbd v1.5.2PL0 Copyright (c) Steve Scherf et al.
# Submitted via: ExactAudioCopy v1.0b3
#
DISCID=a5088a0c
DTITLE=Cale, J.J. - Troubadour
DYEAR=1976
DGENRE=Rock
TTITLE0=Hey Baby
TTITLE1=Travelin' Light
TTITLE2=You Got Something
TTITLE3=Ride Me High
TTITLE4=Hold On
TTITLE5=Cocaine
TTITLE6=I'm A Gypsy Man
TTITLE7=The Woman That Got Away
TTITLE8=Super Blue
TTITLE9=Let Me Do It To You
TTITLE10=Cherry
TTITLE11=You Got Me On So Bad
EXTD=YEAR: 1976
EXTT0=
EXTT1=
EXTT2=
EXTT3=
EXTT4=
EXTT5=
EXTT6=
EXTT7=
EXTT8=
EXTT9=
EXTT10=
EXTT11=
PLAYORDER=
